<?xml version="1.0" encoding="utf-8"?>
<!-- Generator: Adobe Illustrator 15.1.0, SVG Export Plug-In . SVG Version: 6.00 Build 0)  -->
<!DOCTYPE svg PUBLIC "-//W3C//DTD SVG 1.1//EN" "http://www.w3.org/Graphics/SVG/1.1/DTD/svg11.dtd">
<svg version="1.1" id="Layer_1" xmlns="http://www.w3.org/2000/svg" xmlns:xlink="http://www.w3.org/1999/xlink" x="0px" y="0px"
	 width="22px" height="22px" viewBox="0 0 22 22" enable-background="new 0 0 22 22" xml:space="preserve">
<path fill="#ffffff" clip-rule="evenodd" d="M13.209,4.388L15,2l0.048,0.041C15.27,0.879,16.288,0,17.515,0
	c1.389,0,2.514,1.125,2.514,2.514c0,0.055-0.013,0.106-0.017,0.161L22,4h-2.176l-0.001,0.005C19.806,4.005,19.789,4,19.771,4
	c-0.906,0-1.646,0.684-1.749,1.563L18,5.557v3.621L13.209,4.388z M12.604,5.196L0,22h8v-4h5c5,0,5-3.916,5-3.916v-3.492
	L12.604,5.196z"/>
</svg>
