<?xml version="1.0" encoding="utf-8"?>
<!DOCTYPE svg PUBLIC "-//W3C//DTD SVG 1.1//EN" "http://www.w3.org/Graphics/SVG/1.1/DTD/svg11.dtd">
<svg xmlns="http://www.w3.org/2000/svg" xmlns:xlink="http://www.w3.org/1999/xlink"
     version="1.1"
     id="llll">
    <svg>
        <path id="arrow-left" fill="#848995" fill-rule="evenodd" clip-rule="evenodd" d="M11.414,15c-0.256,0-0.512-0.098-0.707-0.293L4,8l6.707-6.707
            c0.391-0.391,1.023-0.391,1.414,0s0.391,1.023,0,1.414L6.828,8l5.293,5.293c0.391,0.391,0.391,1.023,0,1.414
            C11.926,14.902,11.67,15,11.414,15z"/>
    </svg>
    <svg>
        <path id="arrow-left1" fill="#848995" fill-rule="evenodd" clip-rule="evenodd" d="M4,1H2v14h2V1z M13,15c-0.256,0-0.512-0.098-0.707-0.293L5.586,8l6.707-6.707
            c0.391-0.391,1.023-0.391,1.414,0s0.391,1.023,0,1.414L8.414,8l5.293,5.293c0.391,0.391,0.391,1.023,0,1.414
            C13.512,14.902,13.256,15,13,15z"/>
    </svg>
    <svg>
        <path id="arrow-right" fill="#848995" fill-rule="evenodd" clip-rule="evenodd" d="M4.293,14.707c-0.391-0.391-0.391-1.023,0-1.414L9.586,8L4.293,2.707
            c-0.391-0.391-0.391-1.023,0-1.414s1.023-0.391,1.414,0L12.414,8l-6.707,6.707C5.512,14.902,5.256,15,5,15
            S4.488,14.902,4.293,14.707z"/>
    </svg>
    <svg>
        <path id="arrow-right1" fill="#848995" fill-rule="evenodd" clip-rule="evenodd" d="M12,15h2V1h-2V15z M2.293,14.707c-0.391-0.391-0.391-1.023,0-1.414L7.586,8
            L2.293,2.707c-0.391-0.391-0.391-1.023,0-1.414s1.023-0.391,1.414,0L10.414,8l-6.707,6.707C3.512,14.902,3.256,15,3,15
            S2.488,14.902,2.293,14.707z"/>
    </svg>
    <svg>
        <path id="hamburger" fill="currentColor" d="M15,4H1C0.448,4,0,3.552,0,3s0.448-1,1-1h14c0.553,0,1,0.448,1,1S15.553,4,15,4z M16,8c0-0.552-0.447-1-1-1H1
            C0.448,7,0,7.448,0,8s0.448,1,1,1h14C15.553,9,16,8.552,16,8z M16,13c0-0.553-0.447-1-1-1H1c-0.552,0-1,0.447-1,1s0.448,1,1,1h14
            C15.553,14,16,13.553,16,13z"/>
    </svg>
</svg>