<?xml version="1.0" encoding="utf-8"?>
<!-- Generator: Adobe Illustrator 16.0.0, SVG Export Plug-In . SVG Version: 6.00 Build 0)  -->
<!DOCTYPE svg PUBLIC "-//W3C//DTD SVG 1.1//EN" "http://www.w3.org/Graphics/SVG/1.1/DTD/svg11.dtd">
<svg version="1.1" id="Layer_1" xmlns="http://www.w3.org/2000/svg" xmlns:xlink="http://www.w3.org/1999/xlink" x="0px" y="0px"
	 width="204.445px" height="38.538px" viewBox="0 0 204.445 38.538" enable-background="new 0 0 204.445 38.538"
	 xml:space="preserve">
<path fill="#ffffff" d="M51.698,9.399c-4.465,0-5.64,2.585-5.64,2.585h-0.234V9.869h-4.701v18.8h4.701v-11.28c0-2.35,1.41-3.76,3.525-3.76
	c2.115,0,3.289,1.175,3.289,3.525v11.516h4.7V16.684C57.338,11.749,54.988,9.399,51.698,9.399z"/>
<path fill="#ffffff" d="M39.244,15.979c0-3.76-2.82-6.58-8.93-6.58c-5.17,0-9.165,3.996-9.165,9.87c0,6.109,3.995,9.869,9.165,9.869
	c5.875,0,8.694-2.819,8.694-6.109h-4.935c0,0.94-0.94,1.88-3.525,1.88c-2.067,0-3.666-1.175-4.229-3.524h7.05
	C36.659,21.384,39.244,18.798,39.244,15.979z M26.226,17.624c0.469-2.679,2.161-3.996,4.558-3.996c2.585,0,3.525,0.94,3.525,2.115
	c0,0.94-0.705,1.88-2.115,1.88H26.226z"/>
<path fill="#ffffff" d="M14.1,11.984h-0.235c0,0-0.94-2.585-5.17-2.585C3.76,9.399,0,13.159,0,19.269s3.76,9.869,8.694,9.869
	c4.23,0,5.17-2.584,5.17-2.584H14.1v2.351c0,3.054-1.645,5.403-4.465,5.403c-2.82,0-4.466-2.35-4.466-3.76h-4.7
	c0,3.996,3.525,7.99,9.166,7.99c5.639,0,9.164-3.76,9.164-9.634V9.869H14.1V11.984z M14.1,20.444c0,2.819-1.881,4.464-4.701,4.464
	c-2.584,0-4.464-1.88-4.464-5.64c0-3.29,1.41-5.64,4.464-5.64c2.82,0,4.701,1.646,4.701,4.701V20.444z"/>
<path fill="#ffffff" d="M77.548,15.979c0-3.76-2.82-6.58-8.931-6.58c-5.169,0-9.165,3.996-9.165,9.87c0,6.109,3.996,9.869,9.165,9.869
	c5.875,0,8.695-2.819,8.695-6.109h-4.935c0,0.94-0.94,1.88-3.525,1.88c-2.068,0-3.666-1.175-4.23-3.524h7.05
	C74.962,21.384,77.548,18.798,77.548,15.979z M64.529,17.624c0.47-2.679,2.163-3.996,4.559-3.996c2.585,0,3.525,0.94,3.525,2.115
	c0,0.94-0.705,1.88-2.115,1.88H64.529z"/>
<path fill="#ffffff" d="M134.417,4.699c7.049,0,7.52,5.64,7.52,5.64h5.17c0,0-0.47-10.339-12.926-10.339c-7.519,0-13.394,5.874-13.394,14.099
	c0,9.165,5.875,15.039,13.394,15.039c12.456,0,12.926-9.869,12.926-9.869h-5.17c0,0-0.471,5.17-7.52,5.17
	c-4.465,0-8.225-3.76-8.225-10.339C126.192,8.459,129.952,4.699,134.417,4.699z"/>
<path fill="#ffffff" d="M171.545,8.929c0-4.229-3.291-8.459-9.635-8.459h-11.516v28.2h5.171v-11.28h3.854l6.767,11.28h5.641l-7.05-11.516
	C164.777,17.153,171.545,15.979,171.545,8.929z M155.566,12.688v-7.52h6.345c3.055,0,4.229,2.115,4.229,3.76
	c0,1.646-1.175,3.76-4.229,3.76H155.566z"/>
<path fill="#ffffff" d="M198.005,0.469l-8.131,16.073h-0.234l-8.131-16.073h-6.675v28.2h4.936V7.284h0.234l7.756,15.745h3.76l7.754-15.745h0.236
	v21.385h4.935v-28.2H198.005z"/>
<path fill="#ffffff" d="M117.074,9.869h-5.404l-2.914,4.23l-0.518,0.94h-0.142l-0.563-0.94l-2.914-4.23h-5.641l6.345,9.258l-6.58,9.542h5.405
	l3.242-4.7l0.564-0.94h0.141l0.564,0.94l3.242,4.7h5.641l-6.721-9.729L117.074,9.869z"/>
<path fill="#ffffff" d="M85.772,23.028v-8.929h4.23v-4.23h-4.23v-3.76h-4.7v3.76h-2.35v4.23h2.35v8.929c0,3.995,2.115,6.109,5.404,6.109
	c2.82,0,3.76-0.704,3.76-0.704v-4.229c-0.141,0.188-1.081,0.704-2.585,0.704C86.477,24.908,85.772,24.204,85.772,23.028z"/>
<path fill="#ffffff" d="M92.587,28.669h4.701v-18.8h-4.701V28.669z"/>
<path fill="#ffffff" d="M94.937,2.349c-1.645,0-2.819,1.176-2.819,2.82c0,1.645,1.174,2.82,2.819,2.82c1.646,0,2.82-1.128,2.82-2.82
	C97.756,3.524,96.583,2.349,94.937,2.349z"/>
</svg>
