<?xml version="1.0" encoding="utf-8"?>
<!DOCTYPE svg PUBLIC "-//W3C//DTD SVG 1.1//EN" "http://www.w3.org/Graphics/SVG/1.1/DTD/svg11.dtd">
<svg xmlns="http://www.w3.org/2000/svg" xmlns:xlink="http://www.w3.org/1999/xlink"
     version="1.1">
    <svg>
        <path id="coral" myCustomAttribute="great att value"
              d="M5.532,21.83c0-0.654,0.121-1.887,1.637-2.521c1.295-0.541,2.472,0.65,5.251-0.113
        c2.998-0.822,3.09-4.771,5.321-4.771c1.297,0,1.656-0.558,1.656-1.505c0-0.852-1.051-1.126-1.514-1.151
        c-3.464-0.19-4.209,4.418-6.447,4.713c-1.092,0.146-1.835-0.178-2.245-0.979c-0.48-0.938-0.042-1.986,0.521-2.499
        c1.108-1.008,4.738-1.66,6.353-4.743c0.625-1.193,1.089-3.607,1.174-4.033c0.142-0.709,0.741-1.333,1.591-1.6
        c1.325-0.417,1.391-0.984,1.277-1.694c-0.139-0.867-1.073-1.043-1.82-0.881c-1.903,0.421-2.689,1.7-3.149,2.528
        c-0.458,0.833-1.03,3-1.192,3.37c-0.668,1.52-1.878,2.201-3.03,1.78c-1.193-0.436-1.241-2.108-0.492-3.597
        c0.193-0.385,0.878-1.865-0.223-2.333c-0.667-0.284-1.174,0.17-1.434,0.596C8.269,3.213,7.825,4.291,7.659,5.469
        c-0.256,1.817,0.498,3.33,0.605,3.787c0.171,0.719,0.455,2.215-1.221,2.783c-0.878,0.298-1.586-0.083-1.931-0.369
        c-0.838-0.696-0.589-1.828-1.63-1.981C2.899,9.605,2.333,9.98,2.13,10.505c-0.453,1.168,0.356,2.108,1.165,2.897
        c0.907,0.887,2.432,1.438,2.18,2.977c-0.158,0.963-1.327,1.599-1.925,2.057c-1.221,0.934-1.456,2.455-1.456,3.395
        c0,0.277,0.603,0.17,1.802,0.17C5.017,22,5.532,22.049,5.532,21.83z" fill="#FFFFFF"
                />
    </svg>
    <svg>
        <path id="resource" d="M14.001,7.055c-0.333,0-0.643,0.091-0.918,0.237l-2.057-2.056
            c0.613-0.549,1.007-1.339,1.007-2.228c0-1.658-1.344-3.002-3.002-3.002c-1.659,0-3.002,1.344-3.002,3.002
            c0,0.885,0.39,1.672,1,2.222L5.253,7.005C4.704,6.396,3.916,6.006,3.031,6.006c-1.658,0-3.002,1.344-3.002,3.001
            c0,1.658,1.344,3.002,3.002,3.002c0.869,0,1.645-0.375,2.193-0.965l2.051,2.051c-0.15,0.277-0.243,0.591-0.243,0.928
            c0,1.088,0.881,1.969,1.969,1.969c1.087,0,1.969-0.881,1.969-1.969c0-0.333-0.091-0.643-0.237-0.918l2.352-2.35
            c0.274,0.146,0.584,0.236,0.917,0.236c1.087,0,1.97-0.881,1.97-1.969C15.971,7.937,15.088,7.055,14.001,7.055z M5.83,7.944
            l2.138-2.137C8.299,5.933,8.655,6.01,9.031,6.01c0.372,0,0.725-0.076,1.053-0.2l2.225,2.223c-0.171,0.292-0.276,0.627-0.276,0.99
            c0,0.363,0.105,0.698,0.276,0.99L9.99,12.331c-0.291-0.171-0.627-0.276-0.989-0.276c-0.358,0-0.69,0.104-0.98,0.271L5.814,10.12
            c0.138-0.345,0.219-0.719,0.219-1.112C6.033,8.632,5.956,8.276,5.83,7.944z" fill="#FFFFFF"/>
    </svg>
    <svg>
        <g id="modules" xmlns="http://www.w3.org/2000/svg">
            <path d="M3.498,0l3.499,2.02v4.041L3.498,8.08L0,6.061V2.02L3.498,0z" fill="#FFFFFF"/>
            <path d="M8.01,7.807l4.001,2.311v3.621L8.01,16.049l-4.002-2.311v-3.621L8.01,7.807z" fill="#FFFFFF"/>
            <path d="M12.484,0.053l3.484,2.011v4.024L12.484,8.1L9,6.088V2.064L12.484,0.053z" fill="#FFFFFF"/>
        </g>
    </svg>
    <svg>
        <g  id="eye">
            <path fill="#FFFFFF" d="M11,3C3,3,0,11,0,11s3,8,11,8s11-8,11-8S19,3,11,3z M11,17c-3.314,0-6-2.686-6-6c0-3.314,2.686-6,6-6
                c3.314,0,6,2.686,6,6C17,14.314,14.314,17,11,17z M11,8c1.656,0,3,1.343,3,3c0,1.656-1.344,3-3,3c-1.657,0-3-1.344-3-3
                C8,9.343,9.343,8,11,8z"/>
        </g>
    </svg>
    <svg>
        <g id="compass">
            <path fill-rule="evenodd" clip-rule="evenodd" fill="#FFFFFF" d="M11,0C4.925,0,0,4.925,0,11c0,6.074,4.925,11,11,11
                c6.075,0,11-4.926,11-11C22,4.925,17.075,0,11,0z M11.003,19.992c-4.974,0-9.005-4.032-9.005-9.006
                c0-4.973,4.032-9.005,9.005-9.005c4.973,0,9.005,4.032,9.005,9.005C20.009,15.96,15.977,19.992,11.003,19.992z"/>
            <path fill-rule="evenodd" clip-rule="evenodd" fill="#FFFFFF" d="M10.986,3.109c0.521,0,0.944,0.423,0.944,0.944
                s-0.423,0.944-0.944,0.944c-0.522,0-0.945-0.423-0.945-0.944S10.464,3.109,10.986,3.109z"/>
            <path fill-rule="evenodd" clip-rule="evenodd" fill="#FFFFFF" d="M10.957,17.092c0.521,0,0.944,0.423,0.944,0.944
                s-0.423,0.944-0.944,0.944s-0.944-0.423-0.944-0.944S10.435,17.092,10.957,17.092z"/>
            <path fill-rule="evenodd" clip-rule="evenodd" fill="#FFFFFF" d="M3.068,11.077c0-0.521,0.423-0.944,0.944-0.944
                s0.944,0.423,0.944,0.944s-0.423,0.944-0.944,0.944S3.068,11.599,3.068,11.077z"/>
            <path fill-rule="evenodd" clip-rule="evenodd" fill="#FFFFFF" d="M17.02,11.106c0-0.522,0.422-0.944,0.943-0.944
                s0.945,0.422,0.945,0.944c0,0.521-0.424,0.944-0.945,0.944S17.02,11.628,17.02,11.106z"/>
            <path fill-rule="evenodd" clip-rule="evenodd" fill="#FFFFFF" d="M9.67,9.679l-4.215,6.987l6.987-4.215l4.216-6.987L9.67,9.679z
                 M11.007,12.008c-0.525,0-0.952-0.427-0.952-0.952s0.426-0.952,0.952-0.952s0.952,0.427,0.952,0.952S11.533,12.008,11.007,12.008z"
                />
        </g>
    </svg>
    <svg>
        <path id="process" fill="#FFFFFF" d="M21.951,7l-4-4v3h-5v2h5v3L21.951,7z M6.952,18.277V15h-2v3.277c-0.595,0.347-1,0.983-1,1.723
            c0,1.104,0.896,2,2,2s2-0.896,2-2C7.952,19.262,7.547,18.624,6.952,18.277z M11.952,2c0-1.1-0.9-2-2-2h-8c-1.1,0-2,0.9-2,2v10
            c0,1.1,0.9,2,2,2h8c1.1,0,2-0.9,2-2V2z"/>
    </svg>
    <svg>
        <path id="saved_interface" fill="#32bf61" d="M2,15V4h18v8h2V2c0-1.104-0.896-2-2-2H2C0.895,0,0,0.896,0,2v13c0,1.104,0.895,2,2,2h7v-2H2z M3,1
	c0.552,0,1,0.448,1,1S3.552,3,3,3S2,2.552,2,2S2.448,1,3,1z M10,20h12v2H10V20z M16,19.281l-5.625-4.5l1.25-1.563l4.375,3.5
	l4.375-3.5l1.25,1.563L16,19.281z"/>
    </svg>
    <svg>
        <g id="unsaved_interface">
            <path fill="#FFFFFF" d="M16,12c2.205,0,4,1.795,4,4s-1.795,4-4,4s-4-1.795-4-4S13.795,12,16,12 M16,10c-3.313,0-6,2.687-6,6
		s2.687,6,6,6s6-2.687,6-6S19.313,10,16,10L16,10z"/>
            <path fill-rule="evenodd" clip-rule="evenodd" fill="#FFFFFF" d="M2,15V4h18v6.26c0.81,0.565,1.49,1.299,2,2.148V2
		c0-1.104-0.896-2-2-2H2C0.895,0,0,0.896,0,2v13c0,1.104,0.895,2,2,2h7v-2H2z M3,1c0.552,0,1,0.448,1,1S3.552,3,3,3S2,2.552,2,2
		S2.448,1,3,1z"/>
        </g>
    </svg>
    <svg>
        <path id="device_open" fill="#FFFFFF" d="M11,14l-1-2h5c1.1,0,2-0.9,2-2V3c0-1.1-0.9-2-2-2H3C1.9,1,1,1.9,1,3v7c0,1.1,0.9,2,2,2h5l-1,2
            c-1.1,0-2,0.9-2,2h8C13,14.9,12.1,14,11,14z M3,10V3h12v7H3z M21.707,20.293c0.391,0.391,0.391,1.023,0,1.414
            C21.512,21.902,21.256,22,21,22s-0.512-0.098-0.707-0.293L14.586,16l5.707-5.707c0.391-0.391,1.023-0.391,1.414,0
            s0.391,1.023,0,1.414L17.414,16L21.707,20.293z"/>
    </svg>
    <svg>
        <g id="device_close">
            <path fill="#FFFFFF" d="M11,14l-1-2h4v-2H3V3h12v6h2V3c0-1.1-0.9-2-2-2H3C1.9,1,1,1.9,1,3v7c0,1.1,0.9,2,2,2h5l-1,2
                c-1.1,0-2,0.9-2,2h8C13,14.9,12.1,14,11,14z"/>
            <g>
                <path fill="#FFFFFF" d="M16,22c-0.256,0-0.512-0.098-0.707-0.293c-0.391-0.391-0.391-1.023,0-1.414L19.586,16l-4.293-4.293
                    c-0.391-0.391-0.391-1.023,0-1.414s1.023-0.391,1.414,0L22.414,16l-5.707,5.707C16.512,21.902,16.256,22,16,22z"/>
            </g>
        </g>
    </svg>
    <svg>
        <path id="bird" fill="#ffffff" clip-rule="evenodd" d="M13.209,4.388L15,2l0.048,0.041C15.27,0.879,16.288,0,17.515,0
            c1.389,0,2.514,1.125,2.514,2.514c0,0.055-0.013,0.106-0.017,0.161L22,4h-2.176l-0.001,0.005C19.806,4.005,19.789,4,19.771,4
            c-0.906,0-1.646,0.684-1.749,1.563L18,5.557v3.621L13.209,4.388z M12.604,5.196L0,22h8v-4h5c5,0,5-3.916,5-3.916v-3.492
            L12.604,5.196z"/>
    </svg>
    <svg>
        <path id="question" fill="#ffffff" d="M8.788,10.994v-0.476c0-0.571,0.111-1.026,0.332-1.365c0.224-0.339,0.663-0.765,1.318-1.28
            c0.768-0.6,1.31-1.087,1.624-1.461c0.313-0.373,0.548-0.767,0.704-1.18C12.922,4.82,13,4.349,13,3.82
            c0-1.192-0.406-2.127-1.218-2.804S9.875,0,8.491,0C6.854,0,5.32,0.398,3.888,1.195l0.89,1.863C5.32,2.79,5.877,2.561,6.449,2.37
            c0.571-0.19,1.192-0.286,1.863-0.286c0.739,0,1.308,0.159,1.703,0.477c0.395,0.317,0.593,0.772,0.593,1.366
            c0,0.508-0.122,0.944-0.366,1.312C10,5.605,9.458,6.12,8.618,6.783c-0.706,0.55-1.199,1.083-1.481,1.598
            c-0.283,0.516-0.424,1.16-0.424,1.937v0.677H8.788z M6.682,15.571C6.95,15.857,7.334,16,7.835,16s0.888-0.146,1.158-0.439
            c0.271-0.293,0.408-0.689,0.408-1.189c0-0.508-0.134-0.902-0.401-1.181c-0.269-0.278-0.656-0.417-1.165-0.417
            c-1.037,0-1.555,0.531-1.555,1.598C6.28,14.885,6.414,15.285,6.682,15.571z"/>
    </svg>
    <svg>
        <path id="lamp" fill="#ffffff" fill-rule="evenodd" clip-rule="evenodd" d="M12.281,9.654L12,12H5L4.719,9.654c-1.099-1.018-1.79-2.468-1.79-4.083
            C2.929,2.494,5.423,0,8.5,0s5.571,2.494,5.571,5.572C14.071,7.187,13.38,8.637,12.281,9.654z M12,13H5v1h7V13z M11,15H6v1h5V15z"/>
    </svg>
    <svg>
        <circle id="dot" fill="#ffffff" cx="8" cy="8" r="3"/>
    </svg>
    <svg>
        <g id="dots">
            <circle fill="#ffffff" fill-rule="evenodd" clip-rule="evenodd" cx="8" cy="8" r="2"/>
            <circle fill="#ffffff" fill-rule="evenodd" clip-rule="evenodd" cx="2" cy="8" r="2"/>
            <circle fill="#ffffff" fill-rule="evenodd" clip-rule="evenodd" cx="14" cy="8" r="2"/>
        </g>
    </svg>
    <svg>
        <circle id="circle" cx="8" cy="8" r="3"/>
    </svg>
    <svg>
        <g id="arrow_up">
            <path fill="#ffffff" d="M15,11c0,0.256-0.098,0.512-0.293,0.707c-0.391,0.391-1.023,0.391-1.414,0L8,6.414l-5.293,5.293
                c-0.391,0.391-1.023,0.391-1.414,0s-0.391-1.023,0-1.414L8,3.586l6.707,6.707C14.902,10.488,15,10.744,15,11z"/>
        </g>
    </svg>
    <svg>
        <path id="pc" fill-rule="evenodd" clip-rule="evenodd" fill="currentColor" d="M26.989,34v1H11v-1h0.625c2.851-0.125,3.458-4,3.458-4H19h3
            c0,0,1.214,3.875,4.208,4H26.989z M38,6v20c0,1.656-1.344,3-3,3H3c-1.657,0-3-1.344-3-3V6c0-1.657,1.343-3,3-3h32
            C36.656,3,38,4.343,38,6z M19.969,27.016c0-0.544-0.441-0.984-0.984-0.984c-0.544,0-0.984,0.44-0.984,0.984
            C18,27.559,18.44,28,18.984,28C19.527,28,19.969,27.559,19.969,27.016z M35,6H3v19h32V6z"/>
    </svg>
    <svg>
        <path id="tablet" fill-rule="evenodd" clip-rule="evenodd" fill="currentColor" d="M32,0H6C4.343,0,3,1.343,3,3v32c0,1.656,1.343,3,3,3h26
            c1.656,0,3-1.344,3-3V3C35,1.343,33.656,0,32,0z M19,37.5c-0.69,0-1.25-0.561-1.25-1.25c0-0.691,0.56-1.25,1.25-1.25
            c0.69,0,1.25,0.559,1.25,1.25C20.25,36.939,19.69,37.5,19,37.5z M32,34H6V3h26V34z"/>
    </svg>
    <svg>
        <path id="phone" fill-rule="evenodd" clip-rule="evenodd" fill="currentColor" d="M27,0H11C9.343,0,8,1.343,8,3v32c0,1.656,1.343,3,3,3h16
            c1.656,0,3-1.344,3-3V3C30,1.343,28.656,0,27,0z M15,2h8c0.553,0,1,0.447,1,1c0,0.552-0.447,1-1,1h-8c-0.553,0-1-0.448-1-1
            C14,2.447,14.447,2,15,2z M19.001,35.771c-0.736,0-1.334-0.598-1.334-1.334s0.598-1.334,1.334-1.334s1.333,0.598,1.333,1.334
            S19.737,35.771,19.001,35.771z M28,31H10V6h18V31z"/>
    </svg>
    <svg>
        <path id="forms" fill="#ffffff" d="M20,1H2C0.9,1,0,1.9,0,3v16c0,1.1,0.9,2,2,2h18c1.1,0,2-0.9,2-2V3C22,1.9,21.1,1,20,1z M3,2c0.553,0,1,0.448,1,1
            S3.553,4,3,4S2,3.552,2,3S2.447,2,3,2z M2,19v-7h5v7H2z M20,19H9v-7h11V19z M20,10H2V5h18V10z"/>
    </svg>
    <svg>
        <path id="user" fill="#b1b4bb" fill-rule="evenodd" clip-rule="evenodd" d="M12.479,10.5C12.044,10.403,9.937,9.688,9.5,9.545V9.048
            c1.661-0.907,2-3.005,2-4.548c0-2.509-1.948-4-4.021-4C5.406,0.5,3.5,2.33,3.5,4.5c0,1.477,0.543,3.45,2,4.416v0.615
            C5.216,9.62,3.054,10.283,2.479,10.5c-3,1-3,5-3,5h15.994C15.474,15.5,15.479,11.5,12.479,10.5z"/>
    </svg>
    <svg>
        <path id="lock" fill="#b1b4bb" fill-rule="evenodd" clip-rule="evenodd" d="M13,7c0-1.008,0-2.427,0-2.5C13,2.015,10.985,0,8.5,0S4,2.015,4,4.5
            C4,4.573,4,5.992,4,7C2.896,7,2,7.896,2,9v5c0,1.104,0.896,2,2,2h9c1.104,0,2-0.896,2-2V9C15,7.896,14.104,7,13,7z M6,4.5
            C6,3.119,7.119,2,8.5,2S11,3.119,11,4.5C11,4.671,11,7,11,7H6C6,7,6,4.671,6,4.5z M8.527,13.01c-0.846,0-1.531-0.685-1.531-1.53
            c0-0.847,0.686-1.532,1.531-1.532s1.531,0.686,1.531,1.532C10.059,12.325,9.373,13.01,8.527,13.01z"/>
    </svg>
    <svg>
        <path id="loginAs" fill="currentColor" d="M16,2v12c0,1.1-0.9,2-2,2H7c-1.1,0-2-0.9-2-2h2h3h4V2h-4V0h4C15.1,0,16,0.9,16,2z M8,9.05V8c0.83-0.806,1-2.851,1-3.866
            C9,2.194,7.555,1,6,1S3,2.456,3,4.134C3,5.075,3.297,7.188,4,8v1c-3,0-4,4-4,4h12C12,13,11,9,8,9.05z"/>
    </svg>
    <svg>
        <g id="logout">
            <path fill="currentColor" d="M16,2v12c0,1.1-0.9,2-2,2H7c-1.1,0-2-0.9-2-2v-1h2v1h7V2H7v1H5V2c0-1.1,0.9-2,2-2h7C15.1,0,16,0.9,16,2z"/>
            <path fill="currentColor" d="M11,7H4.414l1.293-1.293c0.391-0.391,0.391-1.023,0-1.414s-1.023-0.391-1.414,0L0.586,8l3.707,3.707
            C4.488,11.902,4.744,12,5,12s0.512-0.098,0.707-0.293c0.391-0.391,0.391-1.023,0-1.414L4.414,9H11c0.553,0,1-0.448,1-1
            S11.553,7,11,7z"/>
        </g>
    </svg>
    <svg>
        <g id="logoutAll">
            <path fill="currentColor" d="M7.977,0C5.447,0,3.195,1.172,1.725,3H4.66c0.952-0.63,2.092-1,3.316-1C11.298,2,14,4.702,14,8.024
                s-2.702,6.023-6.023,6.023c-1.256,0-2.424-0.387-3.39-1.047H1.689c1.469,1.854,3.736,3.047,6.287,3.047
                c4.431,0,8.023-3.592,8.023-8.023C16,3.592,12.407,0,7.977,0z"/>
            <path fill="currentColor" d="M10.039,7H3.453l1.293-1.293c0.391-0.391,0.391-1.023,0-1.414s-1.023-0.391-1.414,0L-0.063,8l3.395,3.707
                C3.527,11.902,3.783,12,4.039,12s0.512-0.098,0.707-0.293c0.391-0.391,0.391-1.023,0-1.414L3.453,9h6.586c0.553,0,1-0.448,1-1
                S10.592,7,10.039,7z"/>
        </g>
    </svg>
    <svg>
        <path id="userInfo" fill="currentColor" d="M8,0C3.582,0,0,3.582,0,8c0,4.419,3.582,8,8,8c4.418,0,8-3.581,8-8C16,3.582,12.418,0,8,0z M8.973,13.051H6.965V6.023h2.008
            V13.051z M7.969,5.02c-0.833,0-1.506-0.675-1.506-1.506s0.673-1.506,1.506-1.506c0.832,0,1.506,0.675,1.506,1.506
            S8.801,5.02,7.969,5.02z"/>
    </svg>
    <svg>
        <g id="arrow_down_16">
            <path fill="currentColor" d="M1,4.588c0-0.256,0.098-0.512,0.293-0.707c0.391-0.391,1.023-0.391,1.414,0L8,9.174l5.293-5.293
                c0.391-0.391,1.023-0.391,1.414,0c0.391,0.391,0.391,1.023,0,1.414L8,12.002L1.293,5.295C1.098,5.1,1,4.844,1,4.588z"/>
        </g>
     </svg>
    <svg>
        <path id="x_16" fill="currentColor" d="M9.414,8l5.293-5.293c0.39-0.39,0.39-1.024,0-1.414c-0.39-0.391-1.024-0.391-1.414,0L8,6.586L2.707,1.293
            c-0.391-0.391-1.024-0.391-1.414,0c-0.39,0.39-0.39,1.024,0,1.414L6.586,8l-5.293,5.293c-0.39,0.391-0.39,1.024,0,1.414
            c0.39,0.39,1.024,0.39,1.414,0L8,9.414l5.293,5.293c0.39,0.39,1.024,0.39,1.414,0c0.39-0.391,0.39-1.024,0-1.414L9.414,8z"/>
    </svg>
    <svg>
        <g id="edit">
	        <path fill="currentColor" fill-rule="evenodd" clip-rule="evenodd" d="M18,1l-3,2.906L18.094,7L21,4C21,2.435,19.565,1,18,1z M1,17.906V21h3.094l13-13
			L14,4.906L1,17.906z"/>
            "/>
        </g>
    </svg>
    <svg>
        <g id="edit_16">
            <path fill-rule="evenodd" clip-rule="evenodd" fill="currentColor" d="M13.823,0c-0.771,0-1.445,0.404-1.832,1.009l-0.638,0.638l3,3
                l0.638-0.638C15.596,3.622,16,2.948,16,2.177C16,0.975,15.025,0,13.823,0z"/>
            <polygon fill-rule="evenodd" clip-rule="evenodd" fill="currentColor" points="0,13 0,16 3,16 13.646,5.354 10.646,2.354 	"/>
        </g>
    </svg>
    <svg>
        <path id="add" fill="currentColor" d="M19,9h-7V2c0-1.105-0.396-2-1.5-2C9.395,0,9,0.895,9,2v7H2c-1.104,0-2,0.395-2,1.5C0,11.604,0.895,12,2,12h7
	v7c0,1.104,0.395,2,1.5,2c1.104,0,1.5-0.896,1.5-2v-7h7c1.105,0,2-0.396,2-1.5C21,9.395,20.104,9,19,9z"/>
    </svg>
    <svg>
        <path id="add_16" fill="currentColor" d="M15,7H9V1c0-0.552-0.448-1-1-1S7,0.448,7,1v6H1C0.448,7,0,7.448,0,8s0.448,1,1,1h6v6c0,0.552,0.448,1,1,1
            s1-0.448,1-1V9h6c0.552,0,1-0.448,1-1S15.552,7,15,7z"/>
    </svg>
    <svg>
        <g id="trash">
            <path fill="currentColor" d="M6,19c0.079,1.097,0.9,2,2,2h6c1.1,0,1.921-0.903,2-2l1-7V8H5v4L6,19z"/>
            <path fill="currentColor" d="M16,4h-1V3c0-1.1-0.9-2-2-2H9C7.9,1,7,1.9,7,3v1H6C4.9,4,4,4.9,4,6v1h14V6C18,4.9,17.1,4,16,4z M9,3h4v1H9
		        V3z"/>
        </g>
    </svg>
    <svg>
        <g id="trash_16">
            <path fill="currentColor" d="M3,13c0,1.1,0.9,2,2,2h6c1.1,0,2-0.9,2-2V6H3V13z"/>
            <path fill="currentColor" d="M12,3h-1c0-1.1-0.9-2-2-2H7C5.9,1,5,1.9,5,3H4C2.9,3,2,3.9,2,5h12C14,3.9,13.1,3,12,3z"/>
        </g>
    </svg>
    <svg>
        <g id="box">
            <g>
                <path fill="currentColor" d="M16.917,2.001h-12c0,0-3.917,1.902-3.917,3.003v1.997h20l0-1.997C21,3.903,16.917,2.001,16.917,2.001z
                     M2,8.001l0,10.997C2,20.099,2.9,21,4,21h14c1.1,0,2-0.901,2-2.001l0-10.997H2z M14,12.001H8v-2h6V12.001z"/>
            </g>
        </g>
    </svg>
    <svg>
        <g id="saved">
            <g>
                <path fill="currentColor" d="M0,18v3h22v-3H0z M10.937,14.99l8.968-9.301c0.546-0.619,0.497-1.573-0.11-2.13
                    c-0.607-0.558-1.542-0.507-2.087,0.112l-6.771,6.81l-6.771-6.81C3.62,3.053,2.685,3.002,2.078,3.56
                    C1.471,4.117,1.422,5.07,1.968,5.69L10.937,14.99z"/>
            </g>
        </g>
    </svg>
    <svg>
        <path id="cancel" fill="currentColor" d="M11,1C5.477,1,1,5.477,1,11s4.477,10,10,10s10-4.477,10-10S16.523,1,11,1z M15.707,14.293
            c0.391,0.391,0.391,1.023,0,1.414C15.512,15.902,15.256,16,15,16s-0.512-0.098-0.707-0.293L11,12.414l-3.293,3.293
            C7.512,15.902,7.256,16,7,16s-0.512-0.098-0.707-0.293c-0.391-0.391-0.391-1.023,0-1.414L9.586,11L6.293,7.707
            c-0.391-0.391-0.391-1.023,0-1.414s1.023-0.391,1.414,0L11,9.586l3.293-3.293c0.391-0.391,1.023-0.391,1.414,0s0.391,1.023,0,1.414
            L12.414,11L15.707,14.293z"/>
    </svg>
    <svg>
        <path id="lead_convert" fill-rule="evenodd" clip-rule="evenodd" fill="currentColor" d="M17,22c-1.82,0-13,0-13,0c-1.1,0-1.928-0.442-1.928-0.982
            C2.072,20.477,2.9,20,4,20h6v-1H3c-1.1,0-1.928-0.451-1.928-0.991C1.072,17.468,1.9,17,3,17h6v-1H2c-1.1,0-1.928-0.46-1.928-1
            c0-0.54,0.828-1,1.928-1h7v-1H3c-1.1,0-1.928-0.438-1.928-0.978S1.9,11,3,11h12.5l-2.32-2.985c-0.778-0.764-0.567-1.603-0.179-1.985
            s0.815-0.168,1.593,0.596l5.462,4.723c1.841,1.203,1.945,2.159,1.945,2.159L22,17C22,19.094,19.969,22,17,22z M10.997,2.041
            C10.642,2.041,10.343,1.958,10,2V0c0.344-0.034,0.644,0.035,0.997,0.035C16.742,0.035,21.506,4.384,22,10h-2
            C19.513,5.499,15.625,2.041,10.997,2.041z M2,10H0c0.233-2.647,1.493-5.005,3.268-6.779L0,0h8v8L4.689,4.642
            C3.278,6.053,2.226,7.91,2,10z M0.002,11.059C0.001,11.05,0,11.041,0,11.031c0-0.01,0.001-0.019,0.002-0.028V11.059z"/>
    </svg>
    <svg>
        <g id="dots2">
            <circle fill="currentColor" fill-rule="evenodd" clip-rule="evenodd" cx="8" cy="8" r="2"/>
            <circle fill="currentColor" fill-rule="evenodd" clip-rule="evenodd" cx="2" cy="8" r="2"/>
            <circle fill="currentColor" fill-rule="evenodd" clip-rule="evenodd" cx="14" cy="8" r="2"/>
        </g>
    </svg>
    <svg>
        <g id="layer">
            <path fill="currentColor" d="M14,4v9H3c0,1.1,0.9,2,2,2h9c1.1,0,2-0.9,2-2V6C16,4.9,15.1,4,14,4z"/>
            <path fill="currentColor" d="M13,10V3c0-1.1-0.9-2-2-2H2C0.9,1,0,1.9,0,3v7c0,1.1,0.9,2,2,2h9C12.1,12,13,11.1,13,10z M2,3h9v7H2V3z"/>
        </g>
    </svg>
    <svg>
        <path id="horizontal" fill="currentColor" d="M6,16H2c-1.1,0-2-0.9-2-2V4c0-1.1,0.9-2,2-2h4v2H2v10h4V16z M9,14V4V2V1V0H7v1v1v2v10v2v2h2v-1v-1V14z M14,2
            h-4v2h4v10h-4v2h4c1.1,0,2-0.9,2-2V4C16,2.9,15.1,2,14,2z"/>
    </svg>
    <svg>
        <path id="vertical" fill="currentColor" d="M2,6V3c0-1.1,0.9-2,2-2h12c1.1,0,2,0.9,2,2v3h-2V3H4v3H2z M16,10v3H4v-3H2v3c0,1.1,0.9,2,2,2h12
            c1.1,0,2-0.9,2-2v-3H16z M18,7h-2H4H2H0v2h2h2h12h2h2V7H18z"/>
    </svg>
    <svg>
        <path id="grid" fill="currentColor" d="M14,1H2C0.9,1,0,1.9,0,3v10c0,1.1,0.9,2,2,2h12c1.1,0,2-0.9,2-2V3C16,1.9,15.1,1,14,1z M14,7H9V3h5V7z M7,3
            v4H2V3H7z M2,13V9h5v4H2z M9,13V9h5v4H9z"/>
    </svg>
    <svg>
        <path id="toolbar" fill="currentColor" d="M14,3H2C0.9,3,0,3.9,0,5v6c0,1.1,0.9,2,2,2h12c1.1,0,2-0.9,2-2V5C16,3.9,15.1,3,14,3z M4,10
            c-1.104,0-2-0.895-2-2s0.896-2,2-2s2,0.895,2,2S5.104,10,4,10z M10,10c-1.104,0-2-0.895-2-2s0.896-2,2-2s2,0.895,2,2
            S11.104,10,10,10z"/>
    </svg>
    <svg>
        <g id="form">
            <path fill="currentColor" d="M14,1H2C0.9,1,0,1.9,0,3v10c0,1.1,0.9,2,2,2h12c1.1,0,2-0.9,2-2V3C16,1.9,15.1,1,14,1z M14,13H2V5h12V13z"/>
            <rect x="3" y="6" fill="currentColor" width="10" height="2"/>
        </g>
    </svg>
    <svg>
        <path id="tree" fill="currentColor" d="M14,10c1.1,0,2-0.675,2-1.5S15.1,7,14,7H5H2V4h12c1.1,0,2-0.9,2-2s-0.9-2-2-2H2C0.9,0,0,0.9,0,2v5v2h2h1v6
            h0.124C3.401,15.58,4.135,16,5,16h9c1.1,0,2-0.675,2-1.5S15.1,13,14,13H5v-3H14z"/>
    </svg>
    <svg>
        <g id="form_22">
            <path fill="currentColor" d="M20,1H2C0.9,1,0,1.9,0,3v16c0,1.1,0.9,2,2,2h18c1.1,0,2-0.9,2-2V3C22,1.9,21.1,1,20,1z M20,19H2V6h18V19z"/>
            <rect x="3" y="8" fill="currentColor" width="16" height="2"/>
            <rect x="3" y="12" fill="currentColor" width="8" height="2"/>
        </g>
    </svg>
    <svg>
        <path id="grid_22" fill="currentColor" d="M20,1H2C0.9,1,0,1.9,0,3v16c0,1.1,0.9,2,2,2h18c1.1,0,2-0.9,2-2V3C22,1.9,21.1,1,20,1z M20,10h-8V3h8V10z
        	 M10,3v7H2V3H10z M2,19v-7h8v7H2z M12,19v-7h8v7H12z"/>
    </svg>
    <svg>
        <path id="tree_22" fill="currentColor" d="M20,13c1.1,0,2-0.9,2-2c0-1.1-0.9-2-2-2H5c-0.735,0-1.373,0.406-1.721,1H3H2V5h18c1.1,0,2-0.9,2-2
            c0-1.1-0.9-2-2-2H2C0.9,1,0,1.9,0,3v7v1v1h3v8h0.279C3.627,20.594,4.265,21,5,21h15c1.1,0,2-0.9,2-2c0-1.1-0.9-2-2-2H5v-4H20z"/>
    </svg>
    <svg>
        <path id="toolbar_26" fill="currentColor" d="M24,6H2C0.9,6,0,6.9,0,8v6c0,1.1,0.9,2,2,2h22c1.1,0,2-0.9,2-2V8C26,6.9,25.1,6,24,6z M4,13
            c-1.104,0-2-0.895-2-2s0.896-2,2-2s2,0.895,2,2S5.104,13,4,13z M10,13c-1.104,0-2-0.895-2-2s0.896-2,2-2s2,0.895,2,2
            S11.104,13,10,13z"/>
    </svg>
    <svg>
        <g id="arrows_horizontal">
            <polygon fill="currentColor" points="11,8 11,10 15,7 11,4 11,6 6,6 6,4 2,7 6,10 6,8 "/>
        </g>
    </svg>
    <svg>
        <polygon id="arrows_vertical" fill="currentColor" points="9,5 11,5 8,1 5,5 7,5 7,10 5,10 8,14 11,10 9,10 "/>
    </svg>
    <svg>
        <path id="data_model" fill="currentColor" d="M15,10.987h-2.134l-3.04-3.515c1.263-0.664,2.134-1.974,2.134-3.503C11.96,1.778,10.188,0,8,0
            S4.04,1.778,4.04,3.97c0,1.515,0.858,2.818,2.103,3.486l-3.023,3.531H1c-0.55,0-1,0.452-1,1.003v3.008C0,15.549,0.45,16,1,16h5
            c0.55,0,1-0.451,1-1.003V11.99c0-0.551-0.45-1.003-1-1.003H4.437l2.697-3.149C7.414,7.901,7.701,7.94,8,7.94
            c0.284,0,0.561-0.032,0.827-0.09l2.715,3.138H10c-0.55,0-1,0.452-1,1.003v3.008C9,15.549,9.45,16,10,16h5c0.55,0,1-0.451,1-1.003
            V11.99C16,11.439,15.55,10.987,15,10.987z"/>
    </svg>
    <svg>
        <path id="pc_22" fill="currentColor" d="M19,2H3C1.9,2,1,2.9,1,4v10c0,1.1,0.9,2,2,2h7l-1,2c-1.1,0-2,0.9-2,2h8c0-1.1-0.9-2-2-2l-1-2h7
            c1.1,0,2-0.9,2-2V4C21,2.9,20.1,2,19,2z M19,14H3V4h16V14z"/>
    </svg>
    <svg>
        <path id="tablet_h_22" fill="currentColor" d="M21,17V5c0-1.1-0.9-2-2-2H3C1.9,3,1,3.9,1,5v12c0,1.1,0.9,2,2,2h16C20.1,19,21,18.1,21,17z M2,11
            c0-0.552,0.448-1,1-1s1,0.448,1,1c0,0.552-0.448,1-1,1S2,11.552,2,11z M5,17V5h14v12H5z"/>
    </svg>
    <svg>
        <path id="tablet_v_22" fill="currentColor" d="M17,1H5C3.9,1,3,1.9,3,3v16c0,1.1,0.9,2,2,2h12c1.1,0,2-0.9,2-2V3C19,1.9,18.1,1,17,1z M11,20
            c-0.552,0-1-0.448-1-1s0.448-1,1-1c0.552,0,1,0.448,1,1S11.552,20,11,20z M17,17H5V3h12V17z"/>
    </svg>
    <svg>
        <path id="phone_22" fill="currentColor" d="M15,1H7C5.9,1,5,1.9,5,3v16c0,1.1,0.9,2,2,2h8c1.1,0,2-0.9,2-2V3C17,1.9,16.1,1,15,1z M11,20
            c-0.552,0-1-0.448-1-1s0.448-1,1-1c0.552,0,1,0.448,1,1S11.552,20,11,20z M15,17H7V3h8V17z"/>
    </svg>
    <svg>
        <path id="x_12" fill="currentColor" d="M7.414,6l3.293-3.293c0.391-0.391,0.391-1.023,0-1.414s-1.023-0.391-1.414,0L6,4.586L2.707,1.293
            c-0.391-0.391-1.023-0.391-1.414,0s-0.391,1.023,0,1.414L4.586,6L1.293,9.293c-0.391,0.391-0.391,1.023,0,1.414s1.023,0.391,1.414,0
            L6,7.414l3.293,3.293c0.391,0.391,1.023,0.391,1.414,0s0.391-1.023,0-1.414L7.414,6z"/>
    </svg>
    <svg>
        <g id="refresh">
            <path fill="currentColor" d="M22,1h-8v8l3.127-3.127C18.324,7.302,19,9.105,19,11c0,4.411-3.589,8-8,8c-4.411,0-8-3.589-8-8c0-4.411,3.589-8,8-8
                c0.552,0,1-0.448,1-1c0-0.552-0.448-1-1-1C5.486,1,1,5.486,1,11c0,5.514,4.486,10,10,10c5.514,0,10-4.486,10-10
                c0-2.429-0.889-4.737-2.457-6.543L22,1z"/>
        </g>
    </svg>
    <svg>
        <path id="add12" fill="currentColor" d="M11,5H7V1c0-0.552-0.448-1-1-1C5.447,0,5,0.448,5,1v4H1C0.447,5,0,5.448,0,6s0.447,1,1,1h4v4
            c0,0.552,0.447,1,1,1c0.552,0,1-0.448,1-1V7h4c0.552,0,1-0.448,1-1S11.552,5,11,5z"/>
    </svg>
    <svg>
        <g id="trash22">
            <path fill="currentColor" d="M5.5,18.5c0.079,1.097,0.9,2,2,2h6c1.1,0,1.921-0.903,2-2l1-7v-4h-12v4L5.5,18.5z"/>
            <path fill="currentColor" d="M15.5,3.5h-1v-1c0-1.1-0.9-2-2-2h-4c-1.1,0-2,0.9-2,2v1h-1c-1.1,0-2,0.9-2,2v1h14v-1
                C17.5,4.4,16.6,3.5,15.5,3.5z M8.5,2.5h4v1h-4V2.5z"/>
        </g>
    </svg>''
    <svg>
        <path id="arrowright16" fill="currentColor" fill-rule="evenodd" clip-rule="evenodd" d="M4.293,14.707c-0.391-0.391-0.391-1.023,0-1.414L9.586,8L4.293,2.707
            c-0.391-0.391-0.391-1.023,0-1.414s1.023-0.391,1.414,0L12.414,8l-6.707,6.707C5.512,14.902,5.256,15,5,15
            S4.488,14.902,4.293,14.707z"/>
    </svg>
    <svg>
        <path id="arrowright16_1" fill="currentColor" fill-rule="evenodd" clip-rule="evenodd" d="M12,15h2V1h-2V15z M2.293,14.707c-0.391-0.391-0.391-1.023,0-1.414L7.586,8
            L2.293,2.707c-0.391-0.391-0.391-1.023,0-1.414s1.023-0.391,1.414,0L10.414,8l-6.707,6.707C3.512,14.902,3.256,15,3,15
            S2.488,14.902,2.293,14.707z"/>
    </svg>
    <svg>
        <path id="arrowleft16" fill="currentColor" fill-rule="evenodd" clip-rule="evenodd" d="M11.414,15c-0.256,0-0.512-0.098-0.707-0.293L4,8l6.707-6.707
            c0.391-0.391,1.023-0.391,1.414,0s0.391,1.023,0,1.414L6.828,8l5.293,5.293c0.391,0.391,0.391,1.023,0,1.414
            C11.926,14.902,11.67,15,11.414,15z"/>
    </svg>
    <svg>
        <path id="arrowleft16_1" fill="currentColor" fill-rule="evenodd" clip-rule="evenodd" d="M4,1H2v14h2V1z M13,15c-0.256,0-0.512-0.098-0.707-0.293L5.586,8l6.707-6.707
            c0.391-0.391,1.023-0.391,1.414,0s0.391,1.023,0,1.414L8.414,8l5.293,5.293c0.391,0.391,0.391,1.023,0,1.414
            C13.512,14.902,13.256,15,13,15z"/>
    </svg>
</svg>
