<?xml version="1.0" encoding="utf-8"?>
<!-- Generator: Adobe Illustrator 16.0.0, SVG Export Plug-In . SVG Version: 6.00 Build 0)  -->
<!DOCTYPE svg PUBLIC "-//W3C//DTD SVG 1.1//EN" "http://www.w3.org/Graphics/SVG/1.1/DTD/svg11.dtd">
<svg version="1.1" id="Layer_1" xmlns="http://www.w3.org/2000/svg" xmlns:xlink="http://www.w3.org/1999/xlink" x="0px" y="0px"
	 width="22px" height="22px" viewBox="0 0 22 22" enable-background="new 0 0 22 22" xml:space="preserve">
<path fill="#ffffff" d="M11,2c4.963,0,9,4.038,9,9c0,4.963-4.037,9-9,9c-4.962,0-9-4.037-9-9C2,6.038,6.038,2,11,2 M11,0C4.925,0,0,4.925,0,11
	s4.925,11,11,11s11-4.925,11-11S17.075,0,11,0L11,0z M10.707,15.707L15.414,11l-4.707-4.707c-0.391-0.391-1.023-0.391-1.414,0
	s-0.391,1.023,0,1.414L12.586,11l-3.293,3.293c-0.391,0.391-0.391,1.023,0,1.414C9.488,15.902,9.744,16,10,16
	S10.512,15.902,10.707,15.707z"/>
</svg>
