<?xml version="1.0" encoding="utf-8"?>
<!-- Generator: Adobe Illustrator 16.0.0, SVG Export Plug-In . SVG Version: 6.00 Build 0)  -->
<!DOCTYPE svg PUBLIC "-//W3C//DTD SVG 1.1//EN" "http://www.w3.org/Graphics/SVG/1.1/DTD/svg11.dtd">
<svg version="1.1" id="Layer_1" xmlns="http://www.w3.org/2000/svg" xmlns:xlink="http://www.w3.org/1999/xlink" x="0px" y="0px"
	 width="16px" height="16px" viewBox="0 0 16 16" enable-background="new 0 0 16 16" xml:space="preserve">
    <path fill="#b1b4bb" fill-rule="evenodd" clip-rule="evenodd" d="M13,7c0-1.008,0-2.427,0-2.5C13,2.015,10.985,0,8.5,0S4,2.015,4,4.5
        C4,4.573,4,5.992,4,7C2.896,7,2,7.896,2,9v5c0,1.104,0.896,2,2,2h9c1.104,0,2-0.896,2-2V9C15,7.896,14.104,7,13,7z M6,4.5
        C6,3.119,7.119,2,8.5,2S11,3.119,11,4.5C11,4.671,11,7,11,7H6C6,7,6,4.671,6,4.5z M8.527,13.01c-0.846,0-1.531-0.685-1.531-1.53
        c0-0.847,0.686-1.532,1.531-1.532s1.531,0.686,1.531,1.532C10.059,12.325,9.373,13.01,8.527,13.01z"/>
</svg>
