<?xml version="1.0" encoding="utf-8"?>
<!-- Generator: Adobe Illustrator 17.0.0, SVG Export Plug-In . SVG Version: 6.00 Build 0)  -->
<!DOCTYPE svg PUBLIC "-//W3C//DTD SVG 1.1//EN" "http://www.w3.org/Graphics/SVG/1.1/DTD/svg11.dtd">
<svg version="1.1" id="Layer_1" xmlns="http://www.w3.org/2000/svg" xmlns:xlink="http://www.w3.org/1999/xlink" x="0px" y="0px"
	 width="26px" height="22px" viewBox="0 0 26 22" enable-background="new 0 0 26 22" xml:space="preserve">
<path fill="currentColor" d="M24,6H2C0.9,6,0,6.9,0,8v6c0,1.1,0.9,2,2,2h22c1.1,0,2-0.9,2-2V8C26,6.9,25.1,6,24,6z M4,13
	c-1.104,0-2-0.895-2-2s0.896-2,2-2s2,0.895,2,2S5.104,13,4,13z M10,13c-1.104,0-2-0.895-2-2s0.896-2,2-2s2,0.895,2,2
	S11.104,13,10,13z"/>
</svg>
