<?xml version="1.0" encoding="utf-8"?>
<!-- Generator: Adobe Illustrator 17.0.0, SVG Export Plug-In . SVG Version: 6.00 Build 0)  -->
<!DOCTYPE svg PUBLIC "-//W3C//DTD SVG 1.1//EN" "http://www.w3.org/Graphics/SVG/1.1/DTD/svg11.dtd">
<svg version="1.1" id="Layer_1" xmlns="http://www.w3.org/2000/svg" xmlns:xlink="http://www.w3.org/1999/xlink" x="0px" y="0px"
	 width="16px" height="16px" viewBox="0 0 16 16" enable-background="new 0 0 16 16" xml:space="preserve">
<path fill="#231F20" d="M14,3H2C0.9,3,0,3.9,0,5v6c0,1.1,0.9,2,2,2h12c1.1,0,2-0.9,2-2V5C16,3.9,15.1,3,14,3z M4,10
	c-1.104,0-2-0.895-2-2s0.896-2,2-2s2,0.895,2,2S5.104,10,4,10z M10,10c-1.104,0-2-0.895-2-2s0.896-2,2-2s2,0.895,2,2
	S11.104,10,10,10z"/>
</svg>
