<?xml version="1.0" encoding="utf-8"?>
<!-- Generator: Adobe Illustrator 17.0.0, SVG Export Plug-In . SVG Version: 6.00 Build 0)  -->
<!DOCTYPE svg PUBLIC "-//W3C//DTD SVG 1.1//EN" "http://www.w3.org/Graphics/SVG/1.1/DTD/svg11.dtd">
<svg version="1.1" id="Layer_1" xmlns="http://www.w3.org/2000/svg" xmlns:xlink="http://www.w3.org/1999/xlink" x="0px" y="0px"
	 width="22px" height="22px" viewBox="0 0 22 22" enable-background="new 0 0 22 22" xml:space="preserve">
<path fill="currentColor" d="M20,13c1.1,0,2-0.9,2-2c0-1.1-0.9-2-2-2H5c-0.735,0-1.373,0.406-1.721,1H3H2V5h18c1.1,0,2-0.9,2-2
	c0-1.1-0.9-2-2-2H2C0.9,1,0,1.9,0,3v7v1v1h3v8h0.279C3.627,20.594,4.265,21,5,21h15c1.1,0,2-0.9,2-2c0-1.1-0.9-2-2-2H5v-4H20z"/>
</svg>
