<?xml version="1.0" encoding="utf-8"?>
<!-- Generator: Adobe Illustrator 17.0.0, SVG Export Plug-In . SVG Version: 6.00 Build 0)  -->
<!DOCTYPE svg PUBLIC "-//W3C//DTD SVG 1.1//EN" "http://www.w3.org/Graphics/SVG/1.1/DTD/svg11.dtd">
<svg version="1.1" id="Layer_1" xmlns="http://www.w3.org/2000/svg" xmlns:xlink="http://www.w3.org/1999/xlink" x="0px" y="0px"
	 width="16px" height="16px" viewBox="0 0 16 16" enable-background="new 0 0 16 16" xml:space="preserve">
<path fill="#231F20" d="M14,10c1.1,0,2-0.675,2-1.5S15.1,7,14,7H5H2V4h12c1.1,0,2-0.9,2-2s-0.9-2-2-2H2C0.9,0,0,0.9,0,2v5v2h2h1v6
	h0.124C3.401,15.58,4.135,16,5,16h9c1.1,0,2-0.675,2-1.5S15.1,13,14,13H5v-3H14z"/>
</svg>
